<?xml version="1.0" encoding="UTF-8" standalone="no"?>
<!DOCTYPE svg PUBLIC "-//W3C//DTD SVG 1.1//EN" "http://www.w3.org/Graphics/SVG/1.1/DTD/svg11.dtd">
<svg width="100%" height="100%" viewBox="0 0 48 48" version="1.1" xmlns="http://www.w3.org/2000/svg" xmlns:xlink="http://www.w3.org/1999/xlink" xml:space="preserve" xmlns:serif="http://www.serif.com/" style="fill-rule:evenodd;clip-rule:evenodd;stroke-linejoin:round;stroke-miterlimit:2;">
    <g transform="matrix(2.67201,0,0,2.91432,-29.3921,-32.0575)">
        <g id="_05.100.00-OpenSource-Amplitude" serif:id="05.100.00-OpenSource-Amplitude">
            <path id="Shape" d="M27.677,11L25.131,11C24.416,11 23.844,11.58 23.844,12.298L23.844,18.242L12.557,11.251C11.699,10.691 11,11.101 11,12.169L11,26.3C11,27.366 11.699,27.782 12.557,27.219L23.844,20.229L23.844,26.173C23.844,26.893 24.42,27.47 25.131,27.47L27.677,27.47C28.39,27.47 28.964,26.893 28.964,26.173L28.964,12.298C28.965,11.582 28.389,11 27.677,11Z" style="fill:rgb(96,125,139);"/>
        </g>
    </g>
</svg>
