<?xml version="1.0" encoding="UTF-8" standalone="no"?>
<!DOCTYPE svg PUBLIC "-//W3C//DTD SVG 1.1//EN" "http://www.w3.org/Graphics/SVG/1.1/DTD/svg11.dtd">
<svg width="100%" height="100%" viewBox="0 0 48 48" version="1.1" xmlns="http://www.w3.org/2000/svg" xmlns:xlink="http://www.w3.org/1999/xlink" xml:space="preserve" xmlns:serif="http://www.serif.com/" style="fill-rule:evenodd;clip-rule:evenodd;stroke-linejoin:round;stroke-miterlimit:2;">
    <g transform="matrix(2.66785,0,0,2.90924,-29.3464,-32.0016)">
        <g id="_05.100.00-OpenSource-Amplitude" serif:id="05.100.00-OpenSource-Amplitude">
            <path id="Shape" d="M16.131,18.254L16.131,12.3C16.131,11.581 15.554,11 14.841,11L12.289,11C11.577,11 11,11.581 11,12.3L11,26.2C11,26.921 11.577,27.499 12.289,27.499L14.841,27.499C15.555,27.499 16.131,26.921 16.131,26.2L16.131,20.246L27.433,27.248C28.291,27.809 28.992,27.399 28.992,26.327L28.992,12.172C28.993,11.104 28.291,10.689 27.433,11.252L16.131,18.254Z" style="fill:rgb(96,125,139);"/>
        </g>
    </g>
</svg>
